<svg width="20" height="22" viewBox="0 0 20 22" fill="none" xmlns="http://www.w3.org/2000/svg">
<path fill-rule="evenodd" clip-rule="evenodd" d="M9.43726 1.10972C9.76828 0.852261 10.2318 0.852261 10.5628 1.10972L18.8128 7.52639C19.0361 7.70005 19.1667 7.96708 19.1667 8.24996V18.3333C19.1667 19.0626 18.877 19.7621 18.3613 20.2778C17.8455 20.7936 17.1461 21.0833 16.4167 21.0833H3.58337C2.85403 21.0833 2.15456 20.7936 1.63883 20.2778C1.12311 19.7621 0.833374 19.0626 0.833374 18.3333V8.24996C0.833374 7.96708 0.963974 7.70005 1.18726 7.52639L9.43726 1.10972ZM2.66671 8.69829V18.3333C2.66671 18.5764 2.76328 18.8096 2.93519 18.9815C3.1071 19.1534 3.34026 19.25 3.58337 19.25H16.4167C16.6598 19.25 16.893 19.1534 17.0649 18.9815C17.2368 18.8096 17.3334 18.5764 17.3334 18.3333V8.69829L10 2.99458L2.66671 8.69829Z" fill="#161719"/>
<path fill-rule="evenodd" clip-rule="evenodd" d="M11.5415 11.8462C13.9103 10.5723 16.6768 10.6236 18.4886 11.0262L18.0114 13.1738C16.5232 12.8431 14.3397 12.8393 12.5835 13.7838C10.9318 14.6721 9.45 16.5094 9.45 20.35H7.25C7.25 15.8306 9.06822 13.1763 11.5415 11.8462Z" fill="#161719"/>
</svg>
