<svg width="15" height="21" viewBox="0 0 15 21" fill="none" xmlns="http://www.w3.org/2000/svg">
<path fill-rule="evenodd" clip-rule="evenodd" d="M7.49996 2.16667C4.73854 2.16667 2.49996 4.40524 2.49996 7.16667C2.49996 9.92809 4.73854 12.1667 7.49996 12.1667C10.2614 12.1667 12.5 9.92809 12.5 7.16667C12.5 4.40524 10.2614 2.16667 7.49996 2.16667ZM0.833298 7.16667C0.833298 3.48477 3.81807 0.5 7.49996 0.5C11.1819 0.5 14.1666 3.48477 14.1666 7.16667C14.1666 10.8486 11.1819 13.8333 7.49996 13.8333C3.81807 13.8333 0.833298 10.8486 0.833298 7.16667Z" fill="#161719"/>
<path fill-rule="evenodd" clip-rule="evenodd" d="M10.5487 11.2406C11.005 11.18 11.4239 11.5008 11.4844 11.9571L12.4928 19.5571C12.5348 19.8743 12.3916 20.1875 12.1241 20.3632C11.8567 20.5389 11.5123 20.5459 11.2379 20.3813L7.49999 18.1385L3.76207 20.3813C3.48768 20.5459 3.14324 20.5389 2.87579 20.3632C2.60834 20.1875 2.46511 19.8742 2.50724 19.557L3.51558 11.9653C3.57617 11.5091 3.99515 11.1883 4.45138 11.2489C4.90761 11.3095 5.22833 11.7285 5.16774 12.1847L4.38703 18.0626L7.07124 16.4521C7.33515 16.2938 7.66483 16.2938 7.92874 16.4521L10.6132 18.0628L9.83223 12.1763C9.7717 11.72 10.0925 11.3011 10.5487 11.2406Z" fill="#161719"/>
</svg>
