<svg width="21" height="22" viewBox="0 0 21 22" fill="none" xmlns="http://www.w3.org/2000/svg">
<path fill-rule="evenodd" clip-rule="evenodd" d="M10.5 2.74996C5.94361 2.74996 2.24996 6.44361 2.24996 11C2.24996 15.5563 5.94361 19.25 10.5 19.25C15.0563 19.25 18.75 15.5563 18.75 11C18.75 6.44361 15.0563 2.74996 10.5 2.74996ZM0.416626 11C0.416626 5.43109 4.93109 0.916626 10.5 0.916626C16.0688 0.916626 20.5833 5.43109 20.5833 11C20.5833 16.5688 16.0688 21.0833 10.5 21.0833C4.93109 21.0833 0.416626 16.5688 0.416626 11Z" fill="#161719"/>
<path fill-rule="evenodd" clip-rule="evenodd" d="M8.23413 6.52509C8.53219 6.36557 8.89386 6.38306 9.17514 6.57058L14.6751 10.2372C14.9302 10.4073 15.0833 10.6935 15.0833 11C15.0833 11.3065 14.9302 11.5927 14.6751 11.7627L9.17514 15.4293C8.89386 15.6169 8.53219 15.6343 8.23413 15.4748C7.93607 15.3153 7.75 15.0047 7.75 14.6666V7.33329C7.75 6.99523 7.93607 6.68461 8.23413 6.52509ZM9.58333 9.0461V12.9538L12.5141 11L9.58333 9.0461Z" fill="#161719"/>
</svg>
