<svg width="19" height="20" viewBox="0 0 19 20" fill="none" xmlns="http://www.w3.org/2000/svg">
<path fill-rule="evenodd" clip-rule="evenodd" d="M8.58337 2.66668C5.03955 2.66668 2.16671 5.53952 2.16671 9.08334C2.16671 12.6272 5.03955 15.5 8.58337 15.5C12.1272 15.5 15 12.6272 15 9.08334C15 5.53952 12.1272 2.66668 8.58337 2.66668ZM0.333374 9.08334C0.333374 4.52699 4.02702 0.833344 8.58337 0.833344C13.1397 0.833344 16.8334 4.52699 16.8334 9.08334C16.8334 13.6397 13.1397 17.3333 8.58337 17.3333C4.02702 17.3333 0.333374 13.6397 0.333374 9.08334Z" fill="#161719"/>
<path fill-rule="evenodd" clip-rule="evenodd" d="M13.1143 13.6143C13.4723 13.2563 14.0527 13.2563 14.4107 13.6143L18.3982 17.6018C18.7562 17.9598 18.7562 18.5402 18.3982 18.8982C18.0402 19.2562 17.4598 19.2562 17.1018 18.8982L13.1143 14.9107C12.7563 14.5527 12.7563 13.9723 13.1143 13.6143Z" fill="#161719"/>
</svg>
