<svg width="18" height="20" viewBox="0 0 18 20" fill="none" xmlns="http://www.w3.org/2000/svg">
<path fill-rule="evenodd" clip-rule="evenodd" d="M2.09243 13.1758C2.95197 12.3163 4.11776 11.8334 5.33333 11.8334H12.6667C13.8822 11.8334 15.048 12.3163 15.9076 13.1758C16.7671 14.0353 17.25 15.2011 17.25 16.4167V18.25C17.25 18.7563 16.8396 19.1667 16.3333 19.1667C15.8271 19.1667 15.4167 18.7563 15.4167 18.25V16.4167C15.4167 15.6874 15.1269 14.9879 14.6112 14.4722C14.0955 13.9564 13.396 13.6667 12.6667 13.6667H5.33333C4.60399 13.6667 3.90452 13.9564 3.38879 14.4722C2.87306 14.9879 2.58333 15.6874 2.58333 16.4167V18.25C2.58333 18.7563 2.17293 19.1667 1.66667 19.1667C1.16041 19.1667 0.75 18.7563 0.75 18.25V16.4167C0.75 15.2011 1.23289 14.0353 2.09243 13.1758Z" fill="#161719"/>
<path fill-rule="evenodd" clip-rule="evenodd" d="M0.75 18.14C0.75 17.5325 1.24249 17.04 1.85 17.04H16.15C16.7575 17.04 17.25 17.5325 17.25 18.14C17.25 18.7476 16.7575 19.24 16.15 19.24H1.85C1.24249 19.24 0.75 18.7476 0.75 18.14Z" fill="#161719"/>
<path fill-rule="evenodd" clip-rule="evenodd" d="M8.99996 2.66671C7.48118 2.66671 6.24996 3.89792 6.24996 5.41671C6.24996 6.93549 7.48118 8.16671 8.99996 8.16671C10.5187 8.16671 11.75 6.93549 11.75 5.41671C11.75 3.89792 10.5187 2.66671 8.99996 2.66671ZM4.41663 5.41671C4.41663 2.8854 6.46865 0.833374 8.99996 0.833374C11.5313 0.833374 13.5833 2.8854 13.5833 5.41671C13.5833 7.94801 11.5313 10 8.99996 10C6.46865 10 4.41663 7.94801 4.41663 5.41671Z" fill="#161719"/>
</svg>
